# xmcd
#
# Track frame offsets:
# 150
# 18070
# 31100
# 41532
# 53637
# 65492
# 78375
# 89287
# 106905
# 119800
# 129852
# 147690
# 159482
# 172255
# 187485
#
# Disc length: 2636 seconds
#
#
# Revision: 0
# Processed by: cddbd v1.5.1PL0 Copyright (c) Steve Scherf et al.
# Submitted via: FreeRIP 2.60 
#
DISCID=cf0a4a0f
DTITLE=Tonico e Tinoquinho - Brasil Caipira
DYEAR=1999
DGENRE=Sertanejo
TTITLE0=Brasil Caipira (500 anos)
TTITLE1=Moreninha Linda
TTITLE2=Cana Verde
TTITLE3=Cabocla
TTITLE4=Baile na Roça
TTITLE5=Tristeza do Jeca
TTITLE6=Vai Zé
TTITLE7=Chico Mineiro
TTITLE8=Menino da Porteira
TTITLE9=Rosa Morena
TTITLE10=Cabocla Tereza
TTITLE11=Saudades de Matão
TTITLE12=Chalana
TTITLE13=Beijinho Doce
TTITLE14=Festa na Roça
EXTD=
EXTT0=
EXTT1=
EXTT2=
EXTT3=
EXTT4=
EXTT5=
EXTT6=
EXTT7=
EXTT8=
EXTT9=
EXTT10=
EXTT11=
EXTT12=
EXTT13=
EXTT14=
PLAYORDER=
